<svg xmlns="http://www.w3.org/2000/svg" id="Warstwa_1" viewBox="0 0 99.4 100.7">
    <style>
        .st0{fill:none}.st1{fill:#132941}
    </style>
    <path d="M9.7 54c-.7 0-1.2.4-1.5.9h3c-.3-.5-.8-.9-1.5-.9zM9.7 58.6c1 0 1.8-.8 1.8-1.8v-.5H7.9v.4c0 1.1.8 1.9 1.8 1.9z" class="st0"/>
    <path d="M9.7 40.5c-3.3 0-5.2 2.5-6.1 8.2-.2 1.5-2.2 4.4-2.9 5.2 0 .4.1.4.2.5.5.5 2.4.5 5.6.5.4-1.4 1.6-2.4 3.1-2.4s2.7 1 3.1 2.4c5.1 0 5.7-.3 5.8-.9-.6-.8-2.5-3.6-2.9-5.2-.8-5.2-2.2-8.3-5.9-8.3z" class="st0"/>
    <path d="M49.7 7.4C34 7.4 25.1 19.5 20.8 46.5c-1.1 7.2-10.7 20.8-13.6 24.9.1 1.7.6 2.1.8 2.3 2.2 2.2 11.5 2.3 26.8 2.2h29.9c24.2-.2 27.3-1.2 27.6-4.5-2.9-4-12.1-17.1-13.6-24.7-4.9-24.3-11.4-39.3-29-39.3zM41.3 83v2.1c0 4.6 3.8 8.4 8.4 8.4s8.4-3.8 8.4-8.4V83H41.3z" class="st0"/>
    <path d="M98.6 68.1c-3.2-4.4-11.9-17-13.1-22.8-3.1-15.7-8.9-45-35.9-45C23.9.3 16.9 26 13.8 45.4 13 50.2 5.4 61.9.8 68.2c-.5.6-.7 1.4-.7 2.1 0 2.4.3 5.9 2.9 8.5 3.8 3.8 10.6 4.3 26.5 4.3h4.7v2.1c0 8.5 6.9 15.5 15.5 15.5s15.5-6.9 15.5-15.5V83c28.4-.2 34.1-1.7 34.1-12.7 0-.8-.2-1.6-.7-2.2zm-40.5 17c0 4.6-3.8 8.4-8.4 8.4s-8.4-3.8-8.4-8.4V83h16.8v2.1zm6.4-9.3H34.6c-15.1.2-24.4.1-26.6-2.1-.2-.2-.6-.6-.8-2.3 2.9-4.1 12.5-17.7 13.6-24.9C25.1 19.5 34 7.4 49.7 7.4c17.6 0 24.1 15 28.9 39.2 1.5 7.6 10.7 20.7 13.6 24.7-.4 3.3-3.5 4.3-27.7 4.5z" class="st1"/>
</svg>
