<svg xmlns="http://www.w3.org/2000/svg" id="Warstwa_1" viewBox="0 0 71.3 100">
    <style>
        .st0{fill:#132941}
    </style>
    <path d="M61.8 18H9.4C2.7 18 .3 25.5 0 29.5c0 .4.1.7.4 1 .3.3.6.4 1 .4H70c.4 0 .7-.2 1-.4.3-.3.4-.6.4-1-.5-4-2.8-11.5-9.6-11.5zM40.1 0H32c-3.3 0-6 3.9-6 8.9 0 .7.6 1.3 1.3 1.3h17.5c.7 0 1.3-.6 1.3-1.3.1-5-2.5-8.9-6-8.9zM67.5 39.1c-.3-.3-.6-.4-1-.4H5.8c-.4 0-.7.2-1 .4-.3.3-.4.7-.3 1 0 .4 3.5 35 5.1 48.3.7 6.8 5.4 11.6 11.2 11.6h30.6c5.9 0 10.5-4.8 11.3-11.6 1.5-13.2 5.1-48.3 5.1-48.3.1-.4-.1-.8-.3-1zm-42 50.1c0 1-1.4 1.8-3.1 1.8-1.7 0-3.1-.8-3.1-1.8V49.4c0-1 1.4-1.8 3.1-1.8 1.7 0 3.1.8 3.1 1.8v39.8zm13.7 0c0 1-1.4 1.8-3.1 1.8-1.7 0-3.1-.8-3.1-1.8V49.4c0-1 1.4-1.8 3.1-1.8 1.7 0 3.1.8 3.1 1.8v39.8zm13.8 0c0 1-1.4 1.8-3.1 1.8-1.7 0-3.1-.8-3.1-1.8V49.4c0-1 1.4-1.8 3.1-1.8 1.7 0 3.1.8 3.1 1.8v39.8z" class="st0"/>
</svg>
