<svg xmlns="http://www.w3.org/2000/svg" id="Warstwa_1" viewBox="0 0 100 89.6">
    <style>
        .st0{fill:#132941}
    </style>
    <path d="M69.1 42.4c-.3-.7-1-1.1-1.7-1.1H54.8V4.8C54.8 2.1 52.7 0 50 0c-2.7 0-4.8 2.1-4.8 4.8v36.5H32.7c-.8 0-1.4.4-1.7 1.1s-.2 1.5.3 2.1l17.3 19.9c.4.4.9.7 1.4.7s1.1-.2 1.4-.7l17.3-19.9c.6-.6.7-1.4.4-2.1z" class="st0"/>
    <path d="M87.8 89.6H12.2C5.5 89.6 0 84.1 0 77.3v-8.7c0-2.7 2.1-4.8 4.8-4.8s4.8 2.1 4.8 4.8v8.7c0 1.4 1.2 2.6 2.6 2.6h75.5c1.4 0 2.6-1.2 2.6-2.6v-8.7c0-2.7 2.1-4.8 4.8-4.8s4.8 2.1 4.8 4.8v8.7c.1 6.8-5.4 12.3-12.1 12.3z" class="st0"/>
</svg>
