<svg xmlns="http://www.w3.org/2000/svg" id="Warstwa_1" viewBox="0 0 81 100">
    <style>
        .st0{fill:none}.st1{fill:#132941}
    </style>
    <path d="M66.5 25.2l-6.9-4-22.3 38.6c.5.4 1.1.9 1.9 1.3l2.9 1.7c.8.5 1.5.8 2.1.9l22.3-38.5zM70 19.3l2.6-4.4c.5-.9-.1-2.2-1.3-3L69 10.6c-.7-.4-1.4-.5-2.1-.4-.4.1-.9.3-1.1.7l-2.6 4.4 6.8 4zM38.7 68.8l-2.9-1.7c-.3-.2-.7-.4-1.1-.7.1 1.4.2 3.2.4 5.2 1.8-.8 3.4-1.6 4.7-2.3-.4-.2-.8-.3-1.1-.5z" class="st0"/>
    <path d="M74.7 6l-2.3-1.3c-2.1-1.2-4.6-1.6-6.9-1.2-2.5.5-4.5 1.9-5.7 4L31.5 56.3l-1 1.8-.1.1-2.1 3.6c-.6 1-1 1.8.5 15.4.1 1.1.8 2.1 1.7 2.6.5.3 1.1.4 1.7.4.5 0 1-.1 1.4-.3 12.5-5.7 12.8-6.2 13.4-7.2l3.1-5.4 28.4-48.9c2.4-4.3.7-9.8-3.8-12.4zm-9 4.9c.3-.5.8-.7 1.1-.7.7-.1 1.4 0 2.1.4l2.3 1.3c1.2.7 1.8 2.1 1.3 3L70 19.3l-6.9-4 2.6-4.4zM42.1 62.8l-2.9-1.7c-.8-.5-1.4-.9-1.9-1.3l22.4-38.6 6.9 4-22.4 38.6c-.6-.2-1.3-.5-2.1-1zm-7.4 3.6c.4.3.8.5 1.1.7l2.9 1.7c.4.2.8.4 1.1.6-1.3.6-2.9 1.4-4.7 2.3-.2-2.1-.3-3.9-.4-5.3z" class="st1"/>
    <g>
        <path d="M72.5 99.5H8.1c-3.9 0-7.1-3-7.1-6.6V7.5C1 3.8 4.2.9 8.1.9h41.8c1.9 0 3.4 1.5 3.4 3.4s-1.5 3.4-3.4 3.4H8.1l-.3 85.2 64.7-.2.3-48.3c0-1.9 1.5-3.4 3.4-3.4s3.4 1.5 3.4 3.4V93c0 3.5-3.2 6.5-7.1 6.5z" class="st1"/>
    </g>
</svg>
