<svg inkscape:version="0.92.2 2405546, 2018-03-11" sodipodi:docname="ellipsis.svg" version="1.1" viewBox="0 0 100 89.7" xmlns="http://www.w3.org/2000/svg" xmlns:inkscape="http://www.inkscape.org/namespaces/inkscape" xmlns:sodipodi="http://sodipodi.sourceforge.net/DTD/sodipodi-0.dtd">
     <sodipodi:namedview bordercolor="#666666" borderopacity="1" gridtolerance="10" guidetolerance="10" inkscape:current-layer="Warstwa_1" inkscape:cx="70.537275" inkscape:cy="-9.3875799" inkscape:pageopacity="0" inkscape:pageshadow="2" inkscape:window-height="1032" inkscape:window-maximized="0" inkscape:window-width="1916" inkscape:window-x="1920" inkscape:window-y="22" inkscape:zoom="3.1321452" objecttolerance="10" pagecolor="#ffffff" showgrid="false"/>
     <style>.st0{fill:#132941}</style>
     <path d="m10.444889 34.835924a10.013997 10.013997 0 0 0-10.0140737 10.014074 10.013997 10.013997 0 0 0 10.0140737 10.014074 10.013997 10.013997 0 0 0 10.014075-10.014074 10.013997 10.013997 0 0 0-10.014075-10.014074zm39.556076 0a10.013997 10.013997 0 0 0-10.014074 10.014074 10.013997 10.013997 0 0 0 10.014074 10.014074 10.013997 10.013997 0 0 0 10.014075-10.014074 10.013997 10.013997 0 0 0-10.014075-10.014074zm39.554144 0a10.013997 10.013997 0 0 0-10.014074 10.014074 10.013997 10.013997 0 0 0 10.014074 10.014074 10.013997 10.013997 0 0 0 10.014076-10.014074 10.013997 10.013997 0 0 0-10.014076-10.014074z" fill="#132941" stroke-width="5.00699854" inkscape:connector-curvature="0"/>
</svg>
